<?xml version="1.0" encoding="UTF-8" standalone="no"?>
<!-- Created with Inkscape (http://www.inkscape.org/) -->

<svg
   xmlns:dc="http://purl.org/dc/elements/1.1/"
   xmlns:cc="http://creativecommons.org/ns#"
   xmlns:rdf="http://www.w3.org/1999/02/22-rdf-syntax-ns#"
   xmlns:svg="http://www.w3.org/2000/svg"
   xmlns="http://www.w3.org/2000/svg"
   xmlns:sodipodi="http://sodipodi.sourceforge.net/DTD/sodipodi-0.dtd"
   xmlns:inkscape="http://www.inkscape.org/namespaces/inkscape"
   version="1.1"
   width="554.125"
   height="554.125"
   id="svg29691"
   inkscape:version="0.91 r"
   sodipodi:docname="4-6 Network Logo.svg">
  <title
     id="title3398">Network Icon</title>
  <sodipodi:namedview
     pagecolor="#ffffff"
     bordercolor="#666666"
     borderopacity="1"
     objecttolerance="10"
     gridtolerance="10"
     guidetolerance="10"
     inkscape:pageopacity="0"
     inkscape:pageshadow="2"
     inkscape:window-width="959"
     inkscape:window-height="744"
     id="namedview3451"
     showgrid="false"
     inkscape:zoom="0.51505985"
     inkscape:cx="682.08488"
     inkscape:cy="33.058937"
     inkscape:window-x="65"
     inkscape:window-y="24"
     inkscape:window-maximized="1"
     inkscape:current-layer="svg29691"
     showguides="false"
     fit-margin-top="0"
     fit-margin-left="0"
     fit-margin-right="0"
     fit-margin-bottom="0" />
  <defs
     id="defs29693" />
  <metadata
     id="metadata29696">
    <rdf:RDF>
      <cc:Work
         rdf:about="">
        <dc:format>image/svg+xml</dc:format>
        <dc:type
           rdf:resource="http://purl.org/dc/dcmitype/StillImage" />
        <dc:title>Network Icon</dc:title>
        <cc:license
           rdf:resource="http://creativecommons.org/publicdomain/zero/1.0/" />
        <dc:date>2015-03-13</dc:date>
        <dc:creator>
          <cc:Agent>
            <dc:title>Urs Roesch</dc:title>
          </cc:Agent>
        </dc:creator>
        <dc:publisher>
          <cc:Agent>
            <dc:title>OpenClipart</dc:title>
          </cc:Agent>
        </dc:publisher>
        <dc:subject>
          <rdf:Bag>
            <rdf:li>IPv6</rdf:li>
            <rdf:li>IPv4</rdf:li>
            <rdf:li>Network Logo</rdf:li>
            <rdf:li>black &amp; white</rdf:li>
            <rdf:li>icon</rdf:li>
            <rdf:li>flying packets</rdf:li>
            <rdf:li>packets</rdf:li>
            <rdf:li>network lines</rdf:li>
          </rdf:Bag>
        </dc:subject>
        <dc:description>Network icon representing a globe with connection and moving packets. Initially used for IPv6 presentation. </dc:description>
      </cc:Work>
      <cc:License
         rdf:about="http://creativecommons.org/publicdomain/zero/1.0/">
        <cc:permits
           rdf:resource="http://creativecommons.org/ns#Reproduction" />
        <cc:permits
           rdf:resource="http://creativecommons.org/ns#Distribution" />
        <cc:permits
           rdf:resource="http://creativecommons.org/ns#DerivativeWorks" />
      </cc:License>
    </rdf:RDF>
  </metadata>
  <path
     style="font-style:normal;font-variant:normal;font-weight:normal;font-stretch:condensed;font-size:medium;line-height:125%;font-family:Impact;-inkscape-font-specification:'Impact Condensed';letter-spacing:0px;word-spacing:0px;fill:#000000;fill-opacity:1;stroke:none;stroke-width:1px;stroke-linecap:butt;stroke-linejoin:miter;stroke-opacity:1"
     d="M 277.0625,0 A 277.0625,277.0625 0 0 0 0,277.0625 277.0625,277.0625 0 0 0 277.0625,554.125 277.0625,277.0625 0 0 0 554.125,277.0625 277.0625,277.0625 0 0 0 277.0625,0 Z m -2.76171,52.1601 c -29.51714,11.8672 -57.00128,27.738 -81.74219,46.9805 3.05781,-11.8319 6.85016,-23.3652 11.3125,-34.5586 a 225,225 0 0 1 70.42969,-12.4219 z m 47.9375,4.5098 a 225,225 0 0 0 0.002,0 225,225 0 0 1 39.05273,11.918 c -8.12715,6.9197 -16.02221,14.1646 -23.625,21.7675 -25.92616,25.9261 -47.93531,55.0351 -65.66992,86.4004 a 26.954796,26.954796 0 0 0 -2.23047,-0.1133 26.954796,26.954796 0 0 0 -26.95703,26.9551 26.954796,26.954796 0 0 0 7.24219,18.3496 c -8.67819,21.1345 -15.56893,43.0055 -20.55078,65.3868 -9.05823,-2.9977 -17.91624,-6.4299 -26.55274,-10.2715 -6.16061,-15.8566 -10.95967,-32.3947 -14.27343,-49.4649 a 26.954796,26.954796 0 0 0 14.68945,-24 26.954796,26.954796 0 0 0 -19.95899,-25.998 c -0.0352,-1.863 -0.0664,-3.7281 -0.0664,-5.5996 0,-14.6048 1.08998,-28.9504 3.16992,-42.9727 38.08103,-34.2597 84.45169,-59.4545 135.72852,-72.3574 z M 180.0625,74.2773 c -4.89079,14.6603 -8.78027,29.7762 -11.43945,45.3184 -25.96959,24.3501 -48.11135,52.7352 -65.42383,84.1484 C 94.24017,193.5804 86.01613,182.761 78.53516,171.4062 A 225,225 0 0 1 180.0625,74.2773 Z m 200.58985,3.2598 a 225,225 0 0 1 118.3457,163.0117 c -8.0127,6.2583 -16.36608,12.1012 -25.01758,17.5098 a 26.954796,26.954796 0 0 0 -17.5039,-6.4668 26.954796,26.954796 0 0 0 -26.95313,26.9531 26.954796,26.954796 0 0 0 0.10352,2.1953 c -33.5929,13.6731 -70.32308,21.2422 -108.86719,21.2422 -25.16178,0 -49.56855,-3.2023 -72.83984,-9.2149 4.67221,-21.334 11.16538,-42.1845 19.36132,-62.3398 a 26.954796,26.954796 0 0 0 2.48633,0.125 26.954796,26.954796 0 0 0 26.95313,-26.9551 26.954796,26.954796 0 0 0 -7.41602,-18.5469 c 16.77754,-29.4391 37.52736,-56.7694 61.90821,-81.1503 9.36684,-9.3668 19.24931,-18.0882 29.43945,-26.3633 z m 3.32422,31.2187 c -9.17356,0 -17.2837,1.4619 -24.33008,4.3867 -6.97987,2.8586 -12.49776,7.1796 -16.55274,12.9629 -4.05499,5.7834 -6.38217,11.9327 -6.98046,18.4473 -0.53181,6.448 -0.79688,19.277 -0.79688,38.4883 l 0,22.3359 c 0,17.8154 0.29821,29.8139 0.89649,35.9961 0.66476,6.1822 2.8594,12.0977 6.58203,17.7481 3.78909,5.5839 9.13934,9.8719 16.05273,12.8632 6.91344,2.9914 15.78761,4.4883 26.62305,4.4883 8.70825,0 16.32137,-1.2961 22.83593,-3.8886 6.58104,-2.5926 11.73245,-6.216 15.45508,-10.8692 3.78906,-4.7198 6.11629,-9.838 6.98047,-15.3555 0.86417,-5.5174 1.29492,-13.9257 1.29492,-25.2265 l 0,-12.8633 c 0,-9.506 -0.76403,-17.0528 -2.29297,-22.6367 -1.52893,-5.5838 -5.11914,-10.3689 -10.76953,-14.3574 -5.6504,-3.9886 -12.16422,-5.9825 -19.54297,-5.9825 -5.8498,0 -10.7693,1.0974 -14.75781,3.2911 -3.98851,2.1272 -7.01347,5.3509 -9.07422,9.6718 l 0,-25.7265 c 0,-6.0493 0.0994,-10.0702 0.29883,-12.0645 0.19945,-1.9942 0.96349,-3.6236 2.29297,-4.8867 1.32952,-1.2629 3.02526,-1.8945 5.08594,-1.8945 2.45964,0 4.38724,0.6646 5.7832,1.9941 1.46245,1.3294 2.26159,2.9921 2.39453,4.9863 0.19945,1.9279 0.29883,6.6464 0.29883,14.1582 l 40.2832,0 c 0,-10.1042 -1.56121,-18.4793 -4.68554,-25.1269 -3.12433,-6.6474 -8.31083,-11.7989 -15.55664,-15.4551 -7.24578,-3.6561 -16.51758,-5.4844 -27.81836,-5.4844 z m -219.03711,41.6035 c -0.49561,7.1503 -0.75391,14.3653 -0.75391,21.6407 0,2.5177 0.0414,5.0259 0.10156,7.5293 a 26.954796,26.954796 0 0 0 -14.83007,24.0683 26.954796,26.954796 0 0 0 20.12109,26.0391 c 2.2578,11.9378 5.19291,23.6385 8.78125,35.0508 -22.4913,-12.6967 -43.11286,-28.3061 -61.35352,-46.3242 13.01058,-24.7611 29.16093,-47.6049 47.9336,-68.004 z m 211.58594,34.5606 25.41796,0 0,50.2656 5.46485,0 0,13.1133 -5.46485,0 0,13.5391 -19.19336,0 0,-13.5391 -22.80468,0 0,-13.1133 16.58008,-50.2656 z m -307.39454,6.4238 c 7.63187,10.6868 15.88564,20.8996 24.78321,30.5156 -17.20955,36.2207 -28.19151,75.9638 -31.56055,117.8438 -0.58855,-0.4355 -1.14088,-0.9165 -1.72656,-1.3555 A 225,225 0 0 1 52.0625,277.0625 225,225 0 0 1 69.13086,191.3437 Z m 313.61914,11.1074 -8.45703,32.7344 8.45703,0 0,-32.7344 z M 108.24024,236.375 c 23.43666,22.2155 50.34926,40.7976 79.83008,54.8496 8.73865,20.8552 19.69605,40.551 32.58203,58.7929 -0.50308,8.1896 -0.75781,16.4157 -0.75781,24.668 0,9.9296 0.36858,19.8204 1.0957,29.6563 -14.53129,-1.9938 -28.77198,-4.8889 -42.66992,-8.6211 a 26.954796,26.954796 0 0 0 -26.89258,-25.1348 26.954796,26.954796 0 0 0 -19.9375,8.8613 c -17.72806,-7.6278 -34.69618,-16.6813 -50.75,-27.0312 1.87423,-41.1961 11.52034,-80.3502 27.5,-116.041 z m 393.30664,26.1308 a 225,225 0 0 1 0.51562,14.5567 225,225 0 0 1 -4.42968,44.332 c -26.4018,23.1764 -56.34863,42.4135 -88.92383,56.793 a 26.954796,26.954796 0 0 0 -20.27539,-9.2442 26.954796,26.954796 0 0 0 -26.91211,26.086 c -19.21153,5.3185 -39.09179,9.038 -59.49609,10.9785 -23.55053,-17.2526 -44.39738,-37.9695 -61.78516,-61.4141 0.87379,-11.092 2.22608,-22.1056 4.04883,-33.0156 24.46024,6.2358 50.08005,9.5586 76.4707,9.5586 41.47087,0 81.00219,-8.2445 117.12109,-23.1231 a 26.954796,26.954796 0 0 0 18.59571,7.4864 26.954796,26.954796 0 0 0 26.95507,-26.9551 26.954796,26.954796 0 0 0 -0.28515,-3.7051 c 6.284,-3.8997 12.42449,-8.0097 18.40039,-12.334 z m -287.41211,39.709 c 3.84084,1.4137 7.72424,2.7365 11.63477,4 -0.77163,4.465 -1.47051,8.946 -2.0918,13.4434 -3.37296,-5.6926 -6.55713,-11.5082 -9.54297,-17.4434 z m 279.7832,33.8789 a 225,225 0 0 1 -1.90429,7.461 225,225 0 0 0 1.90429,-7.461 z m -5.52929,17.3906 a 225,225 0 0 1 -74.83204,102.2344 c -31.10059,-6.5048 -60.37386,-17.9568 -86.93164,-33.543 13.99195,-2.2263 27.71567,-5.2571 41.13282,-9.0234 a 26.954796,26.954796 0 0 0 20.67578,9.6992 26.954796,26.954796 0 0 0 26.9414,-26.7207 c 26.0558,-11.4148 50.53768,-25.7648 73.01368,-42.6465 z M 239.05664,373.58 c 10.50986,12.196 21.96334,23.5536 34.23243,33.9805 -1.52914,0.02 -3.05989,0.031 -4.59375,0.031 -9.53607,0 -18.98131,-0.3896 -28.32227,-1.1426 -0.87562,-10.5258 -1.32422,-21.1218 -1.32422,-31.7637 0,-0.3688 0.007,-0.7369 0.008,-1.1055 z m -158.56835,1.1192 c 14.07969,8.4548 28.77607,15.9842 44,22.5176 a 26.954796,26.954796 0 0 0 -0.0156,0.3242 26.954796,26.954796 0 0 0 26.95508,26.9551 26.954796,26.954796 0 0 0 21.29297,-10.4805 c 16.31094,4.4225 33.07127,7.7502 50.19922,9.8887 3.14506,25.5031 8.79272,50.5161 16.65429,74.7636 A 225,225 0 0 1 81.05472,386.9922 c -0.24789,-4.0813 -0.47248,-8.1698 -0.5664,-12.2911 l 0,0 z m 216.3125,50.9824 c 28.62657,19.957 60.86262,34.9981 95.41406,44.3906 a 225,225 0 0 1 -115.15235,31.9903 225,225 0 0 1 -16.49414,-0.8262 c -8.53276,-24.3698 -14.61432,-49.6337 -18.08789,-75.4219 8.65959,0.6135 17.40007,0.9317 26.21485,0.9317 9.45644,0 18.82849,-0.3595 28.10547,-1.0645 z"
     id="path4726"
     inkscape:connector-curvature="0" />
</svg>
