<?xml version="1.0" encoding="UTF-8" standalone="no"?>
<!-- Created with Inkscape (http://www.inkscape.org/) -->

<svg
   xmlns:dc="http://purl.org/dc/elements/1.1/"
   xmlns:cc="http://creativecommons.org/ns#"
   xmlns:rdf="http://www.w3.org/1999/02/22-rdf-syntax-ns#"
   xmlns:svg="http://www.w3.org/2000/svg"
   xmlns="http://www.w3.org/2000/svg"
   xmlns:sodipodi="http://sodipodi.sourceforge.net/DTD/sodipodi-0.dtd"
   xmlns:inkscape="http://www.inkscape.org/namespaces/inkscape"
   width="400"
   height="400"
   id="svg6386"
   version="1.1"
   inkscape:version="0.92.3 (2405546, 2018-03-11)"
   sodipodi:docname="molecule.svg">
  <title
     id="title5920">Molecule</title>
  <defs
     id="defs6388" />
  <sodipodi:namedview
     id="base"
     pagecolor="#ffffff"
     bordercolor="#666666"
     borderopacity="1.0"
     inkscape:pageopacity="0.0"
     inkscape:pageshadow="2"
     inkscape:zoom="2.3193687"
     inkscape:cx="207.82164"
     inkscape:cy="201.45445"
     inkscape:document-units="px"
     inkscape:current-layer="layer1"
     showgrid="false"
     inkscape:window-width="1920"
     inkscape:window-height="1017"
     inkscape:window-x="-8"
     inkscape:window-y="-8"
     inkscape:window-maximized="1"
     inkscape:snap-bbox="true"
     showguides="true"
     inkscape:guide-bbox="true">
    <sodipodi:guide
       position="-6.6037736,384.43396"
       orientation="0,1"
       id="guide8456"
       inkscape:locked="false" />
    <sodipodi:guide
       position="7.0754717,355.18868"
       orientation="0,1"
       id="guide8458"
       inkscape:locked="false" />
    <sodipodi:guide
       position="25.471698,355.18868"
       orientation="1,0"
       id="guide8460"
       inkscape:locked="false" />
    <sodipodi:guide
       position="53.773585,327.35849"
       orientation="1,0"
       id="guide8462"
       inkscape:locked="false" />
    <sodipodi:guide
       position="53.773585,44.839788"
       orientation="0,1"
       id="guide8464"
       inkscape:locked="false" />
    <sodipodi:guide
       position="72.433503,18.970679"
       orientation="0,1"
       id="guide8466"
       inkscape:locked="false" />
  </sodipodi:namedview>
  <metadata
     id="metadata6391">
    <rdf:RDF>
      <cc:Work
         rdf:about="">
        <dc:format>image/svg+xml</dc:format>
        <dc:type
           rdf:resource="http://purl.org/dc/dcmitype/StillImage" />
        <dc:title>Molecule</dc:title>
        <dc:date>2017-01-16</dc:date>
        <dc:creator>
          <cc:Agent>
            <dc:title>m1981</dc:title>
          </cc:Agent>
        </dc:creator>
        <dc:rights>
          <cc:Agent>
            <dc:title>Public domain</dc:title>
          </cc:Agent>
        </dc:rights>
        <dc:publisher>
          <cc:Agent>
            <dc:title>Inkscape</dc:title>
          </cc:Agent>
        </dc:publisher>
        <dc:subject>
          <rdf:Bag>
            <rdf:li>icon</rdf:li>
            <rdf:li>chemistry</rdf:li>
            <rdf:li>molecule</rdf:li>
          </rdf:Bag>
        </dc:subject>
        <cc:license
           rdf:resource="" />
      </cc:Work>
    </rdf:RDF>
  </metadata>
  <g
     inkscape:label="Calque 1"
     inkscape:groupmode="layer"
     id="layer1"
     transform="translate(0,-652.36218)"
     style="display:inline">
    <rect
       style="opacity:1;fill:#000000;fill-opacity:1;stroke:none;stroke-width:2.39667892;stroke-linecap:butt;stroke-linejoin:round;stroke-miterlimit:4;stroke-dasharray:none;stroke-opacity:1;paint-order:normal"
       id="rect7645"
       width="365.59766"
       height="365.61673"
       x="25.022808"
       y="668.09937"
       inkscape:export-filename="D:\projects\iSanXoT-0.3.3\app\assets\images\isanxot.png"
       inkscape:export-xdpi="310.48999"
       inkscape:export-ydpi="310.48999"
       ry="42.452831"
       rx="42.452831" />
    <path
       inkscape:connector-curvature="0"
       id="rect3766"
       d="m 279.3437,697.44035 c -7.1014,0 -14.2288,1.3385 -20.5938,4.875 l -34.25,19.03125 c -6.342,3.52382 -11.7187,9.71256 -11.7187,17.5 v 48.78125 l 20,-11.34375 v -36.53125 c 0.1184,-0.0877 0.3518,-0.32035 1.4062,-0.90625 l 34.25,-19.03125 c 2.3703,-1.31695 6.6079,-2.375 10.9063,-2.375 4.2984,0 8.585,1.06788 10.9375,2.375 l 34.25,19.03125 c 1.0545,0.5859 1.2878,0.81852 1.4063,0.90625 v 50.71875 c -0.1185,0.0877 -0.3518,0.32035 -1.4063,0.90625 l -34.25,19.03125 c -2.3525,1.30712 -6.6391,2.375 -10.9375,2.375 -4.2984,0 -8.536,-1.05805 -10.9063,-2.375 l -17.6875,-9.8125 -20.375,11.53125 28.375,15.78125 c 4.8675,2.70448 10.1871,4.13824 15.5938,4.65625 a 5.0005,5.0005 0 0 0 0,0.1875 v 79.81247 a 5.0005,5.0005 0 1 0 10,0 v -79.81247 a 5.0005,5.0005 0 0 0 0,-0.1875 c 5.4112,-0.51573 10.744,-1.94425 15.625,-4.65625 l 34.25,-19.03125 c 6.3421,-3.52382 11.7188,-9.71256 11.7188,-17.5 V 738.8466 c 0,-7.78743 -5.3767,-13.97618 -11.7188,-17.5 l -34.25,-19.03125 c -6.3826,-3.54633 -13.5236,-4.875 -20.625,-4.875 z m -31.75,48.03125 a 5.0005,5.0005 0 0 0 -1.9688,9.40625 l 15.5313,8.65625 c 3.9628,2.20182 8.5074,3.45635 13.1875,3.96875 v 27.28125 a 5.0005,5.0005 0 1 0 10,0 v -27.28125 c 4.687,-0.51125 9.2494,-1.76329 13.2188,-3.96875 a 5.0081964,5.0081964 0 1 0 -4.875,-8.75 c -3.3601,1.86692 -8.3447,3 -13.3438,3 -4.9991,0 -9.9436,-1.12816 -13.3125,-3 l -15.5625,-8.625 a 5.0005,5.0005 0 0 0 -2.375,-0.6875 5.0005,5.0005 0 0 0 -0.5,0 z m 6.4687,30.84375 a 5.0005,5.0005 0 0 0 -2.2187,0.65625 l -68.9062,39.0625 c -2.0399,-2.48759 -4.6503,-4.54509 -7.4375,-6.09375 L 141.25,790.9091 c -6.3826,-3.54632 -13.5236,-4.875 -20.625,-4.875 -7.1014,0 -14.2289,1.33851 -20.5938,4.875 l -34.250002,19.03125 c -6.3421,3.52382 -11.7187,9.71256 -11.7187,17.5 v 52.53125 c 0,7.78744 5.3766,13.97612 11.7187,17.50002 l 34.250002,19.0312 c 6.3649,3.5365 13.4924,4.875 20.5938,4.875 7.1014,0 14.2424,-1.3287 20.625,-4.875 l 30.8437,-17.125 -20.4062,-11.56249 -20.125,11.18749 c -2.3525,1.3071 -6.6391,2.375 -10.9375,2.375 -4.2984,0 -8.536,-1.058 -10.9063,-2.375 L 75.468698,879.9716 c -1.0545,-0.5859 -1.2878,-0.81852 -1.4062,-0.90625 V 828.3466 c 0.1184,-0.0877 0.3517,-0.32035 1.4062,-0.90625 L 109.7187,808.4091 c 2.3703,-1.31695 6.6079,-2.375 10.9063,-2.375 4.2984,0 8.585,1.06788 10.9375,2.375 l 34.25,19.03125 c 1.0545,0.5859 1.2878,0.81852 1.4062,0.90625 v 33.78125 l 20,11.34375 v -46.03125 c 0,-0.76868 -0.087,-1.5135 -0.1875,-2.25 l 69.75,-39.5 a 5.0005,5.0005 0 0 0 -2.7188,-9.375 z M 88.874998,834.0966 a 5.0005,5.0005 0 0 0 -1.9688,9.40625 l 15.531302,8.625 c 3.9628,2.20182 8.5073,3.45635 13.1875,3.96875 v 27.3125 a 5.0005,5.0005 0 1 0 10,0 v -27.3125 c 4.687,-0.51125 9.2494,-1.76329 13.2187,-3.96875 a 5.0081964,5.0081964 0 1 0 -4.875,-8.75 c -3.36,1.86692 -8.3446,3 -13.3437,3 -4.9992,0 -9.9436,-1.12816 -13.3125,-3 l -15.562502,-8.625 a 5.0005,5.0005 0 0 0 -2.875,-0.65625 z M 150.125,864.87785 a 5.0005,5.0005 0 0 0 -2.0625,9.375 l 64.9062,36.78117 c -0.106,0.756 -0.1875,1.5226 -0.1875,2.3125 v 52.5313 c 0,7.7874 5.3767,13.97619 11.7187,17.5 l 34.25,19.03118 c 6.3649,3.5365 13.4924,4.875 20.5938,4.875 7.1014,0 14.2737,-1.3286 20.6563,-4.875 l 34.25,-19.03118 c 6.3421,-3.52381 11.6875,-9.7126 11.6875,-17.5 v -52.5313 c 0,-7.7874 -5.3454,-13.9761 -11.6875,-17.4999 L 300,876.81535 c -1.8232,-1.01301 -3.7243,-1.82818 -5.6563,-2.5 v 22.24997 l 30.1875,16.7812 c 1.0545,0.5859 1.2878,0.8186 1.4063,0.9063 v 50.7187 c -0.1185,0.088 -0.3518,0.3204 -1.4063,0.9063 l -34.25,19.0312 c -2.3525,1.3072 -6.6391,2.375 -10.9375,2.375 -4.2984,0 -8.5048,-1.058 -10.875,-2.375 l -34.25,-19.0312 c -1.0565,-0.587 -1.3199,-0.8194 -1.4375,-0.9063 v -50.7187 c 0.1176,-0.087 0.381,-0.3193 1.4375,-0.9063 l 30.125,-16.7499 V 874.3466 c -1.9111,0.66924 -3.7874,1.4651 -5.5938,2.46875 l -34.25,19.03127 c -2.7746,1.5416 -5.3705,3.5899 -7.4062,6.0625 L 153,865.56535 a 5.0005,5.0005 0 0 0 -2.875,-0.6875 z m 97.4687,55.12497 a 5.0005,5.0005 0 0 0 -1.9688,9.4062 l 15.5625,8.625 c 3.9628,2.2019 8.4851,3.4564 13.1563,3.9688 v 27.3125 a 5.0005,5.0005 0 1 0 10,0 v -27.3125 c 4.687,-0.5113 9.2494,-1.7633 13.2188,-3.9688 a 5.0006224,5.0006224 0 1 0 -4.8438,-8.75 c -3.36,1.867 -8.3759,3 -13.375,3 -4.9991,0 -9.9436,-1.1281 -13.3125,-3 l -15.5625,-8.625 a 5.0005,5.0005 0 0 0 -2.875,-0.6562 z"
       style="color:#000000;font-style:normal;font-variant:normal;font-weight:normal;font-stretch:normal;font-size:medium;line-height:normal;font-family:Sans;-inkscape-font-specification:Sans;text-indent:0;text-align:start;text-decoration:none;text-decoration-line:none;letter-spacing:normal;word-spacing:normal;text-transform:none;writing-mode:lr-tb;direction:ltr;baseline-shift:baseline;text-anchor:start;display:inline;overflow:visible;visibility:visible;fill:#ffcc00;fill-opacity:1;stroke:none;stroke-width:20;marker:none;enable-background:accumulate"
       inkscape:export-filename="D:\projects\iSanXoT-0.3.3\app\assets\images\isanxot.png"
       inkscape:export-xdpi="310.48999"
       inkscape:export-ydpi="310.48999" />
  </g>
</svg>
