<?xml version="1.0" encoding="UTF-8" standalone="no"?>
<!-- Created with Inkscape (http://www.inkscape.org/) -->

<svg
   xmlns:dc="http://purl.org/dc/elements/1.1/"
   xmlns:cc="http://creativecommons.org/ns#"
   xmlns:rdf="http://www.w3.org/1999/02/22-rdf-syntax-ns#"
   xmlns:svg="http://www.w3.org/2000/svg"
   xmlns="http://www.w3.org/2000/svg"
   xmlns:sodipodi="http://sodipodi.sourceforge.net/DTD/sodipodi-0.dtd"
   xmlns:inkscape="http://www.inkscape.org/namespaces/inkscape"
   width="400"
   height="400"
   id="svg6386"
   version="1.1"
   inkscape:version="0.92.3 (2405546, 2018-03-11)"
   sodipodi:docname="isanxot_logo_text.svg">
  <title
     id="title5920">Molecule</title>
  <defs
     id="defs6388" />
  <sodipodi:namedview
     id="base"
     pagecolor="#ffffff"
     bordercolor="#666666"
     borderopacity="1.0"
     inkscape:pageopacity="0.0"
     inkscape:pageshadow="2"
     inkscape:zoom="1.6400413"
     inkscape:cx="25.177673"
     inkscape:cy="202.55977"
     inkscape:document-units="px"
     inkscape:current-layer="layer1"
     showgrid="false"
     inkscape:window-width="1920"
     inkscape:window-height="1017"
     inkscape:window-x="-8"
     inkscape:window-y="-8"
     inkscape:window-maximized="1"
     inkscape:snap-bbox="true"
     showguides="true"
     inkscape:guide-bbox="true">
    <sodipodi:guide
       position="-6.6037736,384.43396"
       orientation="0,1"
       id="guide8456"
       inkscape:locked="false" />
    <sodipodi:guide
       position="7.0754717,355.18868"
       orientation="0,1"
       id="guide8458"
       inkscape:locked="false" />
    <sodipodi:guide
       position="25.471698,355.18868"
       orientation="1,0"
       id="guide8460"
       inkscape:locked="false" />
    <sodipodi:guide
       position="53.773585,327.35849"
       orientation="1,0"
       id="guide8462"
       inkscape:locked="false" />
    <sodipodi:guide
       position="53.773585,44.839788"
       orientation="0,1"
       id="guide8464"
       inkscape:locked="false" />
    <sodipodi:guide
       position="72.433503,18.970679"
       orientation="0,1"
       id="guide8466"
       inkscape:locked="false" />
    <sodipodi:guide
       position="127.43581,259.74955"
       orientation="1,0"
       id="guide825"
       inkscape:locked="false" />
    <sodipodi:guide
       position="287.18788,189.01963"
       orientation="1,0"
       id="guide827"
       inkscape:locked="false" />
  </sodipodi:namedview>
  <metadata
     id="metadata6391">
    <rdf:RDF>
      <cc:Work
         rdf:about="">
        <dc:format>image/svg+xml</dc:format>
        <dc:type
           rdf:resource="http://purl.org/dc/dcmitype/StillImage" />
        <dc:title>Molecule</dc:title>
        <dc:date>2017-01-16</dc:date>
        <dc:creator>
          <cc:Agent>
            <dc:title>m1981</dc:title>
          </cc:Agent>
        </dc:creator>
        <dc:rights>
          <cc:Agent>
            <dc:title>Public domain</dc:title>
          </cc:Agent>
        </dc:rights>
        <dc:publisher>
          <cc:Agent>
            <dc:title>Inkscape</dc:title>
          </cc:Agent>
        </dc:publisher>
        <dc:subject>
          <rdf:Bag>
            <rdf:li>icon</rdf:li>
            <rdf:li>chemistry</rdf:li>
            <rdf:li>molecule</rdf:li>
          </rdf:Bag>
        </dc:subject>
        <cc:license
           rdf:resource="" />
      </cc:Work>
    </rdf:RDF>
  </metadata>
  <g
     inkscape:label="Calque 1"
     inkscape:groupmode="layer"
     id="layer1"
     transform="translate(0,-652.36218)"
     style="display:inline">
    <rect
       style="opacity:1;fill:#000000;fill-opacity:1;stroke:none;stroke-width:1.40188706;stroke-linecap:butt;stroke-linejoin:round;stroke-miterlimit:4;stroke-dasharray:none;stroke-opacity:1;paint-order:normal"
       id="rect7645"
       width="200"
       height="228.66826"
       x="108.21573"
       y="730.65955"
       inkscape:export-filename="S:\U_Proteomica\UNIDAD\DatosCrudos\jmrodriguezc\projects\iSanXoT_forBuild\app\assets\images\isanxot_logo_text.png"
       inkscape:export-xdpi="310.48999"
       inkscape:export-ydpi="310.48999"
       ry="42.452831"
       rx="42.452831" />
    <path
       inkscape:connector-curvature="0"
       id="rect3766"
       d="m 251.34183,783.90463 c -3.88481,0 -7.78385,0.73223 -11.26582,2.66687 l -18.73645,10.41103 c -3.46938,1.92771 -6.41071,5.31325 -6.41071,9.57337 v 26.68575 l 10.94099,-6.20559 v -19.9844 c 0.0648,-0.048 0.19246,-0.17525 0.76926,-0.49576 l 18.73645,-10.41104 c 1.29667,-0.72043 3.61485,-1.29924 5.96628,-1.29924 2.35144,0 4.69642,0.58418 5.98336,1.29924 l 18.73644,10.41104 c 0.57687,0.32051 0.70449,0.44777 0.76932,0.49576 v 27.74567 c -0.0648,0.048 -0.19245,0.17524 -0.76932,0.49576 l -18.73644,10.41103 c -1.28694,0.71506 -3.63192,1.29925 -5.98336,1.29925 -2.35143,0 -4.66961,-0.57881 -5.96628,-1.29925 l -9.67594,-5.36792 -11.14613,6.30817 15.52253,8.63312 c 2.66276,1.47948 5.57284,2.26382 8.53058,2.5472 a 2.7355208,2.7355208 0 0 0 0,0.10257 v 43.66137 a 2.7355208,2.7355208 0 1 0 5.47049,0 v -43.66137 a 2.7355208,2.7355208 0 0 0 0,-0.10257 c 2.9602,-0.28213 5.8775,-1.0636 8.54765,-2.5472 l 18.73644,-10.41104 c 3.46945,-1.9277 6.41077,-5.31325 6.41077,-9.57336 V 806.5559 c 0,-4.26011 -2.94132,-7.64566 -6.41077,-9.57337 L 262.62473,786.5715 c -3.4916,-1.94002 -7.39808,-2.66687 -11.2829,-2.66687 z m -17.36882,26.27547 a 2.7355208,2.7355208 0 0 0 -1.07703,5.14568 l 8.49639,4.7354 c 2.16785,1.20451 4.65397,1.8908 7.21422,2.1711 v 14.9242 a 2.7355208,2.7355208 0 1 0 5.47049,0 v -14.9242 c 2.56402,-0.27968 5.05988,-0.9646 7.23134,-2.1711 a 2.7397311,2.7397311 0 1 0 -2.66687,-4.78668 c -1.83814,1.0213 -4.56496,1.64115 -7.29972,1.64115 -2.73475,0 -5.43964,-0.61716 -7.28259,-1.64115 l -8.51346,-4.7183 a 2.7355208,2.7355208 0 0 0 -1.29924,-0.3761 2.7355208,2.7355208 0 0 0 -0.27353,0 z m 3.5387,16.87306 a 2.7355208,2.7355208 0 0 0 -1.21374,0.359 l -37.6951,21.36912 c -1.11592,-1.36084 -2.54394,-2.48639 -4.06868,-3.33359 l -18.73643,-10.41103 c -3.4916,-1.94001 -7.39808,-2.66687 -11.2829,-2.66687 -3.88482,0 -7.78391,0.73223 -11.26583,2.66687 l -18.73644,10.41103 c -3.46944,1.92771 -6.41071,5.31326 -6.41071,9.57337 v 28.73719 c 0,4.26012 2.94127,7.64563 6.41071,9.57338 l 18.73644,10.41101 c 3.48192,1.93464 7.38101,2.66686 11.26583,2.66686 3.88482,0 7.7913,-0.72686 11.2829,-2.66686 l 16.87302,-9.36823 -11.1632,-6.32525 -11.00937,6.12011 c -1.28693,0.71505 -3.63191,1.29924 -5.98335,1.29924 -2.35144,0 -4.66961,-0.57878 -5.96629,-1.29924 l -18.73644,-10.41102 c -0.57686,-0.32051 -0.70449,-0.44777 -0.76926,-0.49576 v -27.74567 c 0.0648,-0.048 0.1924,-0.17524 0.76926,-0.49576 l 18.73644,-10.41103 c 1.29668,-0.72044 3.61485,-1.29925 5.96629,-1.29925 2.35144,0 4.69642,0.58419 5.98335,1.29925 l 18.73644,10.41103 c 0.57687,0.32052 0.70449,0.44777 0.76926,0.49576 v 18.48002 l 10.94099,6.20559 v -25.18137 c 0,-0.42051 -0.0476,-0.82796 -0.10257,-1.23086 l 38.1567,-21.60845 a 2.7355208,2.7355208 0 0 0 -1.48732,-5.12859 z m -90.36567,31.6092 a 2.7355208,2.7355208 0 0 0 -1.07703,5.14568 l 8.49639,4.7183 c 2.16785,1.20451 4.65391,1.8908 7.21421,2.17111 v 14.94128 a 2.7355208,2.7355208 0 1 0 5.4705,0 v -14.94128 c 2.56402,-0.27968 5.05988,-0.96461 7.23128,-2.17111 a 2.7397311,2.7397311 0 1 0 -2.66687,-4.78668 c -1.83808,1.0213 -4.56491,1.64115 -7.29966,1.64115 -2.73481,0 -5.43964,-0.61716 -7.2826,-1.64115 l -8.51345,-4.7183 a 2.7355208,2.7355208 0 0 0 -1.57277,-0.359 z m 33.50678,16.83886 a 2.7355208,2.7355208 0 0 0 -1.12829,5.12859 l 35.5069,20.12112 c -0.058,0.41357 -0.10258,0.83294 -0.10258,1.26505 v 28.73722 c 0,4.2601 2.94133,7.6457 6.41071,9.5734 l 18.73645,10.411 c 3.48191,1.9346 7.38101,2.6668 11.26582,2.6668 3.88482,0 7.80842,-0.7268 11.30002,-2.6668 l 18.73645,-10.411 c 3.46944,-1.9277 6.39364,-5.3133 6.39364,-9.5734 v -28.73722 c 0,-4.26009 -2.9242,-7.64561 -6.39364,-9.57331 l -18.73645,-10.41104 c -0.99738,-0.55417 -2.03737,-1.00011 -3.09427,-1.36763 v 12.17184 l 16.51405,9.18014 c 0.57687,0.32052 0.70449,0.44782 0.76932,0.4958 v 27.74563 c -0.0648,0.0481 -0.19245,0.17528 -0.76932,0.49579 l -18.73644,10.411 c -1.28694,0.7151 -3.63192,1.2993 -5.98336,1.2993 -2.35143,0 -4.65254,-0.5788 -5.94916,-1.2993 l -18.73644,-10.411 c -0.57796,-0.32111 -0.72205,-0.44825 -0.78639,-0.49579 v -27.74563 c 0.0643,-0.0476 0.20843,-0.17468 0.78639,-0.4958 l 16.47986,-9.16302 V 880.6811 c -1.04546,0.36611 -2.07189,0.80148 -3.06008,1.35053 l -18.73645,10.41104 c -1.51784,0.84333 -2.93793,1.96386 -4.05155,3.31649 l -35.06242,-19.88184 a 2.7355208,2.7355208 0 0 0 -1.57277,-0.3761 z m 53.32019,30.15609 a 2.7355208,2.7355208 0 0 0 -1.07703,5.14566 l 8.51346,4.7183 c 2.16785,1.20455 4.64177,1.89082 7.19715,2.17113 v 14.94129 a 2.7355208,2.7355208 0 1 0 5.47049,0 V 917.6924 c 2.56402,-0.27971 5.05988,-0.96461 7.23134,-2.17113 a 2.7355914,2.7355914 0 1 0 -2.6498,-4.78669 c -1.83809,1.02135 -4.58203,1.64115 -7.31679,1.64115 -2.73475,0 -5.43964,-0.61712 -7.28259,-1.64115 l -8.51346,-4.7183 a 2.7355208,2.7355208 0 0 0 -1.57277,-0.35897 z"
       style="color:#000000;font-style:normal;font-variant:normal;font-weight:normal;font-stretch:normal;font-size:medium;line-height:normal;font-family:Sans;-inkscape-font-specification:Sans;text-indent:0;text-align:start;text-decoration:none;text-decoration-line:none;letter-spacing:normal;word-spacing:normal;text-transform:none;writing-mode:lr-tb;direction:ltr;baseline-shift:baseline;text-anchor:start;display:inline;overflow:visible;visibility:visible;fill:#ffcc00;fill-opacity:1;stroke:none;stroke-width:10.94098949;marker:none;enable-background:accumulate"
       inkscape:export-filename="S:\U_Proteomica\UNIDAD\DatosCrudos\jmrodriguezc\projects\iSanXoT_forBuild\app\assets\images\isanxot_logo_text.png"
       inkscape:export-xdpi="310.48999"
       inkscape:export-ydpi="310.48999" />
    <text
       xml:space="preserve"
       style="font-style:normal;font-weight:normal;font-size:40.28527069px;line-height:1.25;font-family:sans-serif;letter-spacing:0px;word-spacing:0px;fill:#ffcc00;fill-opacity:1;stroke:none;stroke-width:1.00713181"
       x="126.80819"
       y="775.53607"
       id="text823"
       inkscape:export-filename="S:\U_Proteomica\UNIDAD\DatosCrudos\jmrodriguezc\projects\iSanXoT_forBuild\app\assets\images\isanxot_logo_text.png"
       inkscape:export-xdpi="310.48999"
       inkscape:export-ydpi="310.48999"><tspan
         sodipodi:role="line"
         id="tspan821"
         x="126.80819"
         y="775.53607"
         style="font-style:normal;font-variant:normal;font-weight:bold;font-stretch:normal;font-size:48.34232712px;font-family:Calibri;-inkscape-font-specification:'Calibri Bold';fill:#ffcc00;stroke-width:1.00713181">iSanXoT</tspan></text>
  </g>
</svg>
