<?xml version="1.0" encoding="UTF-8" standalone="no"?>
<!-- Created with Inkscape (http://www.inkscape.org/) -->

<svg
   xmlns:dc="http://purl.org/dc/elements/1.1/"
   xmlns:cc="http://creativecommons.org/ns#"
   xmlns:rdf="http://www.w3.org/1999/02/22-rdf-syntax-ns#"
   xmlns:svg="http://www.w3.org/2000/svg"
   xmlns="http://www.w3.org/2000/svg"
   xmlns:sodipodi="http://sodipodi.sourceforge.net/DTD/sodipodi-0.dtd"
   xmlns:inkscape="http://www.inkscape.org/namespaces/inkscape"
   version="1.1"
   id="svg19852"
   xml:space="preserve"
   width="800"
   height="800"
   viewBox="0 0 800 800"
   sodipodi:docname="network-dots-3-publicdomainvectors.org.svg"
   inkscape:version="0.92.4 (5da689c313, 2019-01-14)"><metadata
     id="metadata19858"><rdf:RDF><cc:Work
         rdf:about=""><dc:format>image/svg+xml</dc:format><dc:type
           rdf:resource="http://purl.org/dc/dcmitype/StillImage" /><dc:title></dc:title></cc:Work></rdf:RDF></metadata><defs
     id="defs19856"><clipPath
       clipPathUnits="userSpaceOnUse"
       id="clipPath19868"><path
         d="M 0,600 H 600 V 0 H 0 Z"
         id="path19866"
         inkscape:connector-curvature="0" /></clipPath><clipPath
       clipPathUnits="userSpaceOnUse"
       id="clipPath19880"><path
         d="m 91.752,399.079 h 241.26 V 157.812 H 91.752 Z"
         id="path19878"
         inkscape:connector-curvature="0" /></clipPath><clipPath
       clipPathUnits="userSpaceOnUse"
       id="clipPath19896"><path
         d="M 339.505,165.686 H 488.711 V 16.4814 H 339.505 Z"
         id="path19894"
         inkscape:connector-curvature="0" /></clipPath><clipPath
       clipPathUnits="userSpaceOnUse"
       id="clipPath19912"><path
         d="M 24.5103,508.5 H 104.783 V 428.229 H 24.5103 Z"
         id="path19910"
         inkscape:connector-curvature="0" /></clipPath><clipPath
       clipPathUnits="userSpaceOnUse"
       id="clipPath19928"><path
         d="M 439.076,575.746 H 588.282 V 426.542 H 439.076 Z"
         id="path19926"
         inkscape:connector-curvature="0" /></clipPath><clipPath
       clipPathUnits="userSpaceOnUse"
       id="clipPath19946"><path
         d="m 125.893,136.411 h 45.38 V 91.0322 h -45.38 z"
         id="path19944"
         inkscape:connector-curvature="0" /></clipPath><clipPath
       clipPathUnits="userSpaceOnUse"
       id="clipPath19964"><path
         d="m 104.895,568.816 h 45.373 v -45.374 h -45.373 z"
         id="path19962"
         inkscape:connector-curvature="0" /></clipPath><clipPath
       clipPathUnits="userSpaceOnUse"
       id="clipPath19982"><path
         d="m 543.605,255.621 h 23.336 v -23.336 h -23.336 z"
         id="path19980"
         inkscape:connector-curvature="0" /></clipPath><clipPath
       clipPathUnits="userSpaceOnUse"
       id="clipPath20000"><path
         d="m 460.509,265.431 h 23.332 v -23.333 h -23.332 z"
         id="path19998"
         inkscape:connector-curvature="0" /></clipPath><clipPath
       clipPathUnits="userSpaceOnUse"
       id="clipPath20018"><path
         d="M 130.657,73.6924 H 153.99 V 50.3594 H 130.657 Z"
         id="path20016"
         inkscape:connector-curvature="0" /></clipPath><clipPath
       clipPathUnits="userSpaceOnUse"
       id="clipPath20036"><path
         d="m 119.605,502.954 h 23.333 v -23.333 h -23.333 z"
         id="path20034"
         inkscape:connector-curvature="0" /></clipPath><clipPath
       clipPathUnits="userSpaceOnUse"
       id="clipPath20054"><path
         d="m 479.797,237.142 h 60.482 v -60.484 h -60.482 z"
         id="path20052"
         inkscape:connector-curvature="0" /></clipPath><clipPath
       clipPathUnits="userSpaceOnUse"
       id="clipPath20072"><path
         d="M 23.6206,161.782 H 103.898 V 81.5039 H 23.6206 Z"
         id="path20070"
         inkscape:connector-curvature="0" /></clipPath></defs><sodipodi:namedview
     pagecolor="#ffffff"
     bordercolor="#666666"
     borderopacity="1"
     objecttolerance="10"
     gridtolerance="10"
     guidetolerance="10"
     inkscape:pageopacity="0"
     inkscape:pageshadow="2"
     inkscape:window-width="1920"
     inkscape:window-height="1018"
     id="namedview19854"
     showgrid="false"
     inkscape:zoom="0.93105948"
     inkscape:cx="513.55932"
     inkscape:cy="391.52542"
     inkscape:window-x="-8"
     inkscape:window-y="-8"
     inkscape:window-maximized="1"
     inkscape:current-layer="g19860" /><g
     id="g19860"
     inkscape:groupmode="layer"
     inkscape:label="network-dots-3-publicdomainvectors.org"
     transform="matrix(1.3333333,0,0,-1.3333333,0,800)"><g
       id="g19862"><g
         id="g19864"
         clip-path="url(#clipPath19868)"><path
           d="M 131.271,491.288 148.414,135.641"
           style="fill:none;stroke:#52c390;stroke-width:1.15799999;stroke-linecap:butt;stroke-linejoin:miter;stroke-miterlimit:4;stroke-dasharray:none;stroke-opacity:1"
           id="path19870"
           inkscape:connector-curvature="0" /><path
           d="M 471.042,477.837 C 345.492,390.561 237.716,314.525 210.285,295.145 l -3.882,-2.736 c 0,0 140.904,-130.739 264.64,-245.547 v 9.819 c -118.237,109.708 -249.382,231.39 -253.174,234.907 77.435,54.689 165.485,116.419 253.174,177.344 z"
           style="fill:#52c390;fill-opacity:1;fill-rule:nonzero;stroke:none"
           id="path19872"
           inkscape:connector-curvature="0" /><g
           id="g19874"><g
             id="g19876" /><g
             id="g19886"><g
               clip-path="url(#clipPath19880)"
               id="g19884"><path
                 d="m 212.39,399.079 c -66.63,0 -120.638,-54.018 -120.638,-120.636 0,-66.63 54.008,-120.63 120.637,-120.63 66.619,0 120.623,54 120.623,120.63 0,66.618 -54.004,120.636 -120.622,120.636"
                 style="fill:#ffffff;fill-opacity:1;fill-rule:nonzero;stroke:none"
                 id="path19882"
                 inkscape:connector-curvature="0" /></g></g></g><path
           d="m 212.389,161.833 c -64.305,0 -116.61,52.31 -116.61,116.61 0,64.3 52.305,116.615 116.611,116.615 64.294,0 116.608,-52.315 116.608,-116.615 0,-64.3 -52.314,-116.61 -116.609,-116.61 m 0,-8.043 c 68.728,0 124.651,55.92 124.651,124.653 0,68.738 -55.923,124.655 -124.65,124.655 -68.74,0 -124.652,-55.917 -124.652,-124.655 0,-68.733 55.912,-124.653 124.651,-124.653"
           style="fill:#52c390;fill-opacity:1;fill-rule:nonzero;stroke:none"
           id="path19888"
           inkscape:connector-curvature="0" /><g
           id="g19890"><g
             id="g19892" /><g
             id="g19902"><g
               clip-path="url(#clipPath19896)"
               id="g19900"><path
                 d="m 414.111,165.686 c -41.206,0 -74.606,-33.405 -74.606,-74.605 0,-41.207 33.401,-74.6 74.606,-74.6 41.2,0 74.6,33.393 74.6,74.6 0,41.2 -33.4,74.605 -74.6,74.605"
                 style="fill:#52c390;fill-opacity:1;fill-rule:nonzero;stroke:none"
                 id="path19898"
                 inkscape:connector-curvature="0" /></g></g></g><path
           d="m 414.111,18.964 c -39.767,0 -72.115,32.355 -72.117,72.117 0,39.769 32.35,72.12 72.117,72.12 39.763,0 72.117,-32.351 72.117,-72.12 10e-4,-39.762 -32.354,-72.117 -72.117,-72.117 m 0,-4.974 c 42.505,0 77.091,34.585 77.089,77.091 0,42.51 -34.585,77.093 -77.089,77.093 -42.51,0 -77.09,-34.583 -77.09,-77.093 10e-4,-42.506 34.581,-77.091 77.09,-77.091"
           style="fill:#52c390;fill-opacity:1;fill-rule:nonzero;stroke:none"
           id="path19904"
           inkscape:connector-curvature="0" /><g
           id="g19906"><g
             id="g19908" /><g
             id="g19918"><g
               clip-path="url(#clipPath19912)"
               id="g19916"><path
                 d="m 64.648,508.5 c -22.169,0 -40.138,-17.971 -40.138,-40.137 0,-22.169 17.97,-40.134 40.138,-40.134 22.166,0 40.135,17.965 40.135,40.134 0,22.166 -17.969,40.137 -40.135,40.137"
                 style="fill:#52c390;fill-opacity:1;fill-rule:nonzero;stroke:none"
                 id="path19914"
                 inkscape:connector-curvature="0" /></g></g></g><path
           d="m 64.648,429.564 c -21.395,0 -38.798,17.408 -38.798,38.799 0,21.397 17.403,38.801 38.798,38.801 21.393,0 38.799,-17.404 38.799,-38.801 10e-4,-21.391 -17.406,-38.799 -38.799,-38.799 m 0,-2.675 c 22.868,0 41.475,18.607 41.475,41.474 0,22.871 -18.608,41.477 -41.475,41.477 -22.87,0 -41.474,-18.606 -41.474,-41.477 0.001,-22.868 18.604,-41.474 41.474,-41.474"
           style="fill:#52c390;fill-opacity:1;fill-rule:nonzero;stroke:none"
           id="path19920"
           inkscape:connector-curvature="0" /><g
           id="g19922"><g
             id="g19924" /><g
             id="g19934"><g
               clip-path="url(#clipPath19928)"
               id="g19932"><path
                 d="m 513.683,575.746 c -41.206,0 -74.607,-33.405 -74.607,-74.604 0,-41.207 33.402,-74.6 74.607,-74.6 41.2,0 74.599,33.393 74.599,74.6 0,41.199 -33.399,74.604 -74.599,74.604"
                 style="fill:#52c390;fill-opacity:1;fill-rule:nonzero;stroke:none"
                 id="path19930"
                 inkscape:connector-curvature="0" /></g></g></g><path
           d="m 513.683,429.024 c -39.769,0 -72.116,32.355 -72.117,72.118 0,39.769 32.348,72.12 72.117,72.12 39.763,0 72.116,-32.351 72.116,-72.12 10e-4,-39.763 -32.353,-72.118 -72.116,-72.118 m 0,-4.973 c 42.504,0 77.09,34.585 77.088,77.091 0,42.509 -34.585,77.093 -77.088,77.093 -42.511,0 -77.09,-34.584 -77.09,-77.093 10e-4,-42.506 34.581,-77.091 77.09,-77.091"
           style="fill:#52c390;fill-opacity:1;fill-rule:nonzero;stroke:none"
           id="path19936"
           inkscape:connector-curvature="0" /><path
           d="m 83.309,441.516 66.996,-60.464 4.401,4.875 -66.997,60.465 z"
           style="fill:#52c390;fill-opacity:1;fill-rule:nonzero;stroke:none"
           id="path19938"
           inkscape:connector-curvature="0" /><g
           id="g19940"><g
             id="g19942" /><g
             id="g19952"><g
               clip-path="url(#clipPath19946)"
               id="g19950"><path
                 d="m 161.028,94.753 c 10.477,6.874 13.397,20.94 6.524,31.415 -6.874,10.478 -20.938,13.395 -31.414,6.521 -10.476,-6.873 -13.398,-20.936 -6.523,-31.414 6.873,-10.473 20.938,-13.396 31.413,-6.522"
                 style="fill:#52c390;fill-opacity:1;fill-rule:nonzero;stroke:none"
                 id="path19948"
                 inkscape:connector-curvature="0" /></g></g></g><path
           d="m 136.552,132.058 c 10.111,6.635 23.734,3.805 30.367,-6.305 6.634,-10.112 3.806,-23.734 -6.305,-30.369 -10.111,-6.634 -23.733,-3.805 -30.368,6.305 -6.634,10.111 -3.806,23.735 6.306,30.369 m -0.83,1.264 c -10.807,-7.091 -13.831,-21.653 -6.74,-32.461 7.091,-10.808 21.656,-13.832 32.462,-6.74 10.809,7.092 13.832,21.652 6.739,32.461 -7.09,10.807 -21.653,13.833 -32.461,6.74"
           style="fill:#52c390;fill-opacity:1;fill-rule:nonzero;stroke:none"
           id="path19954"
           inkscape:connector-curvature="0" /><path
           d="m 131.439,118.308 -50.412,7.8 -0.568,-3.67 50.412,-7.799 z"
           style="fill:#52c390;fill-opacity:1;fill-rule:nonzero;stroke:none"
           id="path19956"
           inkscape:connector-curvature="0" /><g
           id="g19958"><g
             id="g19960" /><g
             id="g19970"><g
               clip-path="url(#clipPath19964)"
               id="g19968"><path
                 d="m 150.267,545.878 c 0.138,12.529 -9.908,22.799 -22.435,22.937 -12.531,0.138 -22.798,-9.908 -22.936,-22.436 -0.138,-12.529 9.904,-22.798 22.435,-22.935 12.527,-0.139 22.797,9.905 22.936,22.434"
                 style="fill:#52c390;fill-opacity:1;fill-rule:nonzero;stroke:none"
                 id="path19966"
                 inkscape:connector-curvature="0" /></g></g></g><path
           d="m 105.651,546.37 c 0.133,12.093 10.08,21.821 22.172,21.688 12.094,-0.134 21.822,-10.08 21.688,-22.171 -0.133,-12.093 -10.079,-21.823 -22.172,-21.689 -12.091,0.133 -21.822,10.08 -21.688,22.172 m -1.512,0.016 c -0.143,-12.925 10.258,-23.557 23.182,-23.699 12.927,-0.144 23.56,10.259 23.701,23.182 0.144,12.928 -10.255,23.558 -23.183,23.7 -12.925,0.143 -23.558,-10.256 -23.7,-23.183"
           style="fill:#52c390;fill-opacity:1;fill-rule:nonzero;stroke:none"
           id="path19972"
           inkscape:connector-curvature="0" /><path
           d="M 115.764,534.591 81.171,497.1 l 2.729,-2.517 34.592,37.49 z"
           style="fill:#52c390;fill-opacity:1;fill-rule:nonzero;stroke:none"
           id="path19974"
           inkscape:connector-curvature="0" /><g
           id="g19976"><g
             id="g19978" /><g
             id="g19988"><g
               clip-path="url(#clipPath19982)"
               id="g19986"><path
                 d="m 566.67,241.459 c 1.376,6.295 -2.609,12.513 -8.903,13.89 -6.295,1.378 -12.512,-2.609 -13.89,-8.904 -1.376,-6.292 2.609,-12.512 8.902,-13.887 6.293,-1.378 12.513,2.608 13.891,8.901"
                 style="fill:#52c390;fill-opacity:1;fill-rule:nonzero;stroke:none"
                 id="path19984"
                 inkscape:connector-curvature="0" /></g></g></g><path
           d="m 544.258,246.363 c 1.329,6.075 7.351,9.935 13.426,8.606 6.075,-1.33 9.935,-7.353 8.605,-13.427 -1.328,-6.074 -7.351,-9.935 -13.426,-8.606 -6.074,1.328 -9.935,7.353 -8.605,13.427 m -0.761,0.165 c -1.419,-6.493 2.708,-12.931 9.2,-14.35 6.493,-1.422 12.932,2.706 14.353,9.198 1.419,6.494 -2.708,12.932 -9.201,14.353 -6.493,1.421 -12.931,-2.706 -14.352,-9.201"
           style="fill:#52c390;fill-opacity:1;fill-rule:nonzero;stroke:none"
           id="path19990"
           inkscape:connector-curvature="0" /><path
           d="m 548.119,239.377 -21.329,-15.267 1.111,-1.552 21.329,15.266 z"
           style="fill:#52c390;fill-opacity:1;fill-rule:nonzero;stroke:none"
           id="path19992"
           inkscape:connector-curvature="0" /><g
           id="g19994"><g
             id="g19996" /><g
             id="g20006"><g
               clip-path="url(#clipPath20000)"
               id="g20004"><path
                 d="m 473.291,265.376 c -6.413,0.617 -12.111,-4.083 -12.728,-10.496 -0.618,-6.414 4.082,-12.11 10.495,-12.728 6.413,-0.617 12.113,4.081 12.728,10.495 0.616,6.414 -4.082,12.113 -10.495,12.729"
                 style="fill:#52c390;fill-opacity:1;fill-rule:nonzero;stroke:none"
                 id="path20002"
                 inkscape:connector-curvature="0" /></g></g></g><path
           d="m 471.096,242.54 c -6.192,0.596 -10.742,6.113 -10.145,12.305 0.595,6.189 6.113,10.739 12.303,10.144 6.188,-0.595 10.741,-6.114 10.145,-12.302 -0.592,-6.191 -6.115,-10.744 -12.303,-10.147 m -0.074,-0.774 c 6.617,-0.637 12.515,4.229 13.151,10.844 0.638,6.619 -4.229,12.517 -10.844,13.152 -6.617,0.637 -12.518,-4.227 -13.154,-10.845 -0.636,-6.616 4.229,-12.516 10.847,-13.151"
           style="fill:#52c390;fill-opacity:1;fill-rule:nonzero;stroke:none"
           id="path20008"
           inkscape:connector-curvature="0" /><path
           d="m 477.571,247.207 17.701,-19.356 1.409,1.289 -17.701,19.355 z"
           style="fill:#52c390;fill-opacity:1;fill-rule:nonzero;stroke:none"
           id="path20010"
           inkscape:connector-curvature="0" /><g
           id="g20012"><g
             id="g20014" /><g
             id="g20024"><g
               clip-path="url(#clipPath20018)"
               id="g20022"><path
                 d="m 132.783,55.312 c 3.708,-5.269 10.985,-6.534 16.253,-2.827 5.271,3.708 6.535,10.986 2.827,16.252 -3.708,5.27 -10.985,6.537 -16.253,2.829 -5.269,-3.709 -6.535,-10.985 -2.827,-16.254"
                 style="fill:#52c390;fill-opacity:1;fill-rule:nonzero;stroke:none"
                 id="path20020"
                 inkscape:connector-curvature="0" /></g></g></g><path
           d="m 151.544,68.515 c 3.579,-5.087 2.354,-12.132 -2.732,-15.712 -5.087,-3.579 -12.133,-2.354 -15.71,2.732 -3.578,5.085 -2.355,12.134 2.73,15.713 5.085,3.578 12.136,2.353 15.712,-2.733 m 0.636,0.448 c -3.826,5.435 -11.359,6.744 -16.793,2.92 -5.438,-3.826 -6.747,-11.361 -2.922,-16.795 3.826,-5.437 11.36,-6.747 16.797,-2.921 5.435,3.825 6.744,11.358 2.918,16.796"
           style="fill:#52c390;fill-opacity:1;fill-rule:nonzero;stroke:none"
           id="path20026"
           inkscape:connector-curvature="0" /><path
           d="m 143.786,70.391 3.165,26.038 -1.894,0.23 -3.166,-26.037 z"
           style="fill:#52c390;fill-opacity:1;fill-rule:nonzero;stroke:none"
           id="path20028"
           inkscape:connector-curvature="0" /><g
           id="g20030"><g
             id="g20032" /><g
             id="g20042"><g
               clip-path="url(#clipPath20036)"
               id="g20040"><path
                 d="m 121.731,484.573 c 3.707,-5.268 10.985,-6.533 16.253,-2.826 5.271,3.708 6.535,10.985 2.828,16.253 -3.709,5.269 -10.986,6.536 -16.254,2.828 -5.269,-3.708 -6.535,-10.985 -2.827,-16.255"
                 style="fill:#52c390;fill-opacity:1;fill-rule:nonzero;stroke:none"
                 id="path20038"
                 inkscape:connector-curvature="0" /></g></g></g><path
           d="m 140.492,497.777 c 3.579,-5.087 2.354,-12.132 -2.732,-15.712 -5.087,-3.579 -12.133,-2.353 -15.711,2.732 -3.577,5.085 -2.354,12.134 2.731,15.713 5.084,3.578 12.135,2.353 15.712,-2.733 m 0.636,0.448 c -3.826,5.436 -11.359,6.744 -16.794,2.92 -5.438,-3.827 -6.747,-11.359 -2.921,-16.794 3.825,-5.437 11.359,-6.747 16.796,-2.923 5.436,3.826 6.745,11.36 2.919,16.797"
           style="fill:#52c390;fill-opacity:1;fill-rule:nonzero;stroke:none"
           id="path20044"
           inkscape:connector-curvature="0" /><path
           d="m 132.733,499.652 3.165,26.038 -1.894,0.231 -3.166,-26.036 z"
           style="fill:#52c390;fill-opacity:1;fill-rule:nonzero;stroke:none"
           id="path20046"
           inkscape:connector-curvature="0" /><g
           id="g20048"><g
             id="g20050" /><g
             id="g20060"><g
               clip-path="url(#clipPath20054)"
               id="g20058"><path
                 d="m 540.277,206.564 c 0.183,16.702 -13.207,30.391 -29.907,30.576 -16.703,0.183 -30.388,-13.208 -30.571,-29.908 -0.185,-16.701 13.201,-30.39 29.904,-30.572 16.7,-0.185 30.39,13.202 30.574,29.904"
                 style="fill:#52c390;fill-opacity:1;fill-rule:nonzero;stroke:none"
                 id="path20056"
                 inkscape:connector-curvature="0" /></g></g></g><path
           d="m 480.806,207.22 c 0.175,16.121 13.435,29.091 29.553,28.912 16.121,-0.182 29.09,-13.438 28.911,-29.556 -0.178,-16.119 -13.435,-29.089 -29.554,-28.91 -16.118,0.177 -29.09,13.436 -28.91,29.554 m -2.017,0.022 c -0.189,-17.229 13.675,-31.4 30.902,-31.592 17.232,-0.191 31.406,13.675 31.593,30.904 0.194,17.231 -13.671,31.402 -30.902,31.592 -17.229,0.191 -31.403,-13.672 -31.593,-30.904"
           style="fill:#52c390;fill-opacity:1;fill-rule:nonzero;stroke:none"
           id="path20062"
           inkscape:connector-curvature="0" /><path
           d="m 496.604,191.904 -46.113,-49.975 3.637,-3.355 46.112,49.975 z"
           style="fill:#52c390;fill-opacity:1;fill-rule:nonzero;stroke:none"
           id="path20064"
           inkscape:connector-curvature="0" /><g
           id="g20066"><g
             id="g20068" /><g
             id="g20078"><g
               clip-path="url(#clipPath20072)"
               id="g20076"><path
                 d="M 23.771,125.096 C 21.866,103.008 38.227,83.56 60.31,81.654 c 22.087,-1.904 41.531,14.454 43.437,36.54 1.905,22.085 -14.45,41.532 -36.537,43.437 -22.083,1.905 -41.533,-14.453 -43.439,-36.535"
                 style="fill:#52c390;fill-opacity:1;fill-rule:nonzero;stroke:none"
                 id="path20074"
                 inkscape:connector-curvature="0" /></g></g></g><path
           d="M 102.416,118.31 C 100.577,96.992 81.738,81.151 60.426,82.99 c -21.318,1.839 -37.161,20.673 -35.322,41.989 1.838,21.314 20.674,37.16 41.991,35.322 21.313,-1.839 37.16,-20.679 35.321,-41.991 m 2.666,-0.229 c 1.965,22.781 -14.974,42.92 -37.757,44.885 C 44.54,164.931 24.402,147.992 22.437,125.21 20.472,102.424 37.41,82.289 60.195,80.324 c 22.784,-1.966 42.92,14.971 44.887,37.757"
           style="fill:#52c390;fill-opacity:1;fill-rule:nonzero;stroke:none"
           id="path20080"
           inkscape:connector-curvature="0" /><path
           d="m 87.633,141.415 3.408,-3.487 50.212,44.684 -3.408,3.488 z"
           style="fill:#52c390;fill-opacity:1;fill-rule:nonzero;stroke:none"
           id="path20082"
           inkscape:connector-curvature="0" /><path
           d="M 134.169,485.656 464.3,261.82"
           style="fill:none;stroke:#52c390;stroke-width:1.15799999;stroke-linecap:butt;stroke-linejoin:miter;stroke-miterlimit:4;stroke-dasharray:none;stroke-opacity:1"
           id="path20084"
           inkscape:connector-curvature="0" /><path
           d="M 472.175,253.765 142.324,62.025"
           style="fill:none;stroke:#52c390;stroke-width:1.15799999;stroke-linecap:butt;stroke-linejoin:miter;stroke-miterlimit:4;stroke-dasharray:none;stroke-opacity:1"
           id="path20086"
           inkscape:connector-curvature="0" /><path
           d="m 508.975,225.677 4.708,235.151"
           style="fill:none;stroke:#52c390;stroke-width:1.15799999;stroke-linecap:butt;stroke-linejoin:miter;stroke-miterlimit:4;stroke-dasharray:none;stroke-opacity:1"
           id="path20088"
           inkscape:connector-curvature="0" /><path
           d="M 56.95,441.516 59.387,139.171"
           style="fill:none;stroke:#52c390;stroke-width:1.15799999;stroke-linecap:butt;stroke-linejoin:miter;stroke-miterlimit:4;stroke-dasharray:none;stroke-opacity:1"
           id="path20090"
           inkscape:connector-curvature="0" /><path
           d="m 78.88,466.919 406.945,42.644"
           style="fill:none;stroke:#52c390;stroke-width:1.15799999;stroke-linecap:butt;stroke-linejoin:miter;stroke-miterlimit:4;stroke-dasharray:none;stroke-opacity:1"
           id="path20092"
           inkscape:connector-curvature="0" /><path
           d="M 154.421,119.677 354.237,75.814"
           style="fill:none;stroke:#52c390;stroke-width:1.15799999;stroke-linecap:butt;stroke-linejoin:miter;stroke-miterlimit:4;stroke-dasharray:none;stroke-opacity:1"
           id="path20094"
           inkscape:connector-curvature="0" /><path
           d="m 412.111,133.689 68.84,325.92"
           style="fill:none;stroke:#52c390;stroke-width:1.15799999;stroke-linecap:butt;stroke-linejoin:miter;stroke-miterlimit:4;stroke-dasharray:none;stroke-opacity:1"
           id="path20096"
           inkscape:connector-curvature="0" /><path
           d="m 127.581,546.129 339.968,-9.761"
           style="fill:none;stroke:#52c390;stroke-width:1.15799999;stroke-linecap:butt;stroke-linejoin:miter;stroke-miterlimit:4;stroke-dasharray:none;stroke-opacity:1"
           id="path20098"
           inkscape:connector-curvature="0" /><path
           d="M 158.077,105.056 500.445,207.22"
           style="fill:none;stroke:#52c390;stroke-width:1.15799999;stroke-linecap:butt;stroke-linejoin:miter;stroke-miterlimit:4;stroke-dasharray:none;stroke-opacity:1"
           id="path20100"
           inkscape:connector-curvature="0" /></g></g></g></svg>